<svg version="1.1" xmlns="http://www.w3.org/2000/svg" xmlns:xlink="http://www.w3.org/1999/xlink" x="0px" y="0px"
	 viewBox="175 0 150 100" enable-background="new 175 0 150 100" xml:space="preserve">
<rect x="175" width="150" height="100"/>
<path d="M212.7,68.6c-0.7,0-1.4-0.5-1.4-2.2V36.7h-7.9v29.4c0,5.4,1.8,8.9,7.2,8.9c1.8,0,3.1-0.3,4-0.7l-1-5.8
	C213.2,68.6,213,68.6,212.7,68.6z M228.8,47.1c-6.8,0-13,5.1-13,14s6.2,14,13,14c6.7,0,12.9-5.1,12.9-14
	C241.8,52.2,235.5,47.1,228.8,47.1z M228.8,68.6c-3.3,0-4.9-2.9-4.9-7.6s1.6-7.6,4.9-7.6c3.2,0,4.9,2.9,4.9,7.6
	C233.7,65.7,232.1,68.6,228.8,68.6z M283.7,47.1c-6.8,0-13,5.1-13,14s6.2,14,13,14c6.7,0,13-5.1,13-14S290.4,47.1,283.7,47.1z
	 M283.7,68.6c-3.3,0-4.9-2.9-4.9-7.6s1.6-7.6,4.9-7.6c3.2,0,4.9,2.9,4.9,7.6C288.6,65.7,286.9,68.6,283.7,68.6z M260.1,69.4h-4.3
	c-2.9,0-4-0.7-4-2c0-0.9,0.3-1.4,1-2c1.2,0.4,2.2,0.5,3.2,0.5c5.9,0,10.5-2.8,10.5-9c0-1.4-0.4-2.7-0.9-3.5h4.2v-5.8h-9.7
	c-1.2-0.4-2.6-0.7-4.1-0.7c-5.8,0-11,3.2-11,9.6c0,3.1,1.7,5.7,3.6,6.9v0.2c-1.7,1.2-3,3.1-3,5c0,2.2,1.1,3.6,2.5,4.5v0.2
	c-2.5,1.4-3.8,3.2-3.8,5.4c0,4.7,4.9,6.8,11.2,6.8c9.1,0,14.9-4,14.9-9.6C270.3,71.4,266.7,69.4,260.1,69.4z M256,52.4
	c2.1,0,3.6,1.5,3.6,4.3c0,2.9-1.5,4.4-3.6,4.4c-2.1,0-3.6-1.5-3.6-4.4C252.3,53.8,253.9,52.4,256,52.4z M256.6,80.8
	c-3.5,0-5.9-1.1-5.9-3.1c0-1,0.5-1.8,1.4-2.6c0.9,0.2,1.9,0.3,3.8,0.3h2.8c2.6,0,4.1,0.4,4.1,2.1C262.7,79.3,260.2,80.8,256.6,80.8z
	"/>
</svg>
