<svg version="1.1" xmlns="http://www.w3.org/2000/svg" xmlns:xlink="http://www.w3.org/1999/xlink" x="0px" y="0px"
	 viewBox="125 0 250 100" enable-background="new 125 0 250 100" xml:space="preserve">
<rect x="125" width="250" height="100"/>
<path d="M282.1,59.2c-0.6,2.5-1.2,5.1-1.8,7.6h-0.2c-0.7-2.6-1.4-5.2-2.1-7.6l-3.8-11.4h-7.9l10.2,25.9l-0.4,1.4
	c-0.7,2.1-2.1,3.5-4.7,3.5c-0.6,0-1.3-0.2-1.8-0.3l-1.4,6c1.1,0.3,2.1,0.5,3.8,0.5c6.3,0,9.1-3.4,11.6-10.2l9.2-26.9h-7.6
	L282.1,59.2z M161.8,68.6c-0.7,0-1.4-0.5-1.4-2.2V36.7h-7.9v29.4c0,5.4,1.8,8.9,7.2,8.9c1.8,0,3.1-0.3,4-0.7l-0.9-5.8
	C162.3,68.6,162.1,68.6,161.8,68.6z M347.5,59.9c0-7.2-3.8-12.8-11.3-12.8c-6.4,0-12.6,5.3-12.6,14c0,8.8,5.9,14,13.5,14
	c3.2,0,6.7-1.1,9.5-3l-2.6-4.8c-1.9,1.2-3.8,1.8-5.8,1.8c-3.6,0-6.2-1.8-6.9-5.8h16C347.4,62.5,347.5,61.3,347.5,59.9z M331.2,58.3
	c0.5-3.6,2.7-5.2,5.1-5.2c3.2,0,4.5,2.2,4.5,5.2H331.2z M178,47.1c-6.8,0-13,5.1-13,14s6.2,14,13,14c6.7,0,13-5.1,13-14
	S184.7,47.1,178,47.1z M178,68.6c-3.3,0-4.9-2.9-4.9-7.6s1.6-7.6,4.9-7.6c3.2,0,4.9,2.9,4.9,7.6C182.9,65.7,181.2,68.6,178,68.6z
	 M262.2,68.8c-2.1,0-3.5-1.2-3.5-4.2V53.9h6.4v-6.2h-6.4v-7.1h-6.5l-0.9,7.1l-4.1,0.3v5.8h3.7v10.8c0,6.2,2.6,10.3,9.2,10.3
	c2.6,0,4.5-0.5,5.9-1l-1.2-5.8C264.1,68.6,263.1,68.8,262.2,68.8z M310.5,47.1c-2.8,0-5.5,1.4-7.6,3.3h-0.2l-0.5-2.6h-6.5v36.5h7.9
	v-7.8l-0.3-4.2c1.9,1.8,4,2.8,6.4,2.8c5.8,0,11.2-5.3,11.2-14.4C320.9,52.4,317,47.1,310.5,47.1z M307.9,68.6
	c-1.4,0-2.9-0.4-4.2-1.7V55.9c1.6-1.7,3-2.4,4.6-2.4c3.2,0,4.6,2.4,4.6,7.2C312.8,66.2,310.6,68.6,307.9,68.6z M232.8,47.1
	c-6.8,0-13,5.1-13,14s6.2,14,13,14c6.7,0,12.9-5.1,12.9-14S239.5,47.1,232.8,47.1z M232.8,68.6c-3.3,0-4.9-2.9-4.9-7.6
	s1.6-7.6,4.9-7.6c3.2,0,4.9,2.9,4.9,7.6C237.7,65.7,236.1,68.6,232.8,68.6z M209.2,69.4h-4.3c-2.9,0-4-0.7-4-2c0-0.9,0.3-1.4,1-2
	c1.2,0.4,2.2,0.5,3.2,0.5c5.9,0,10.5-2.8,10.5-9c0-1.4-0.4-2.7-0.8-3.5h4.2v-5.8h-9.7c-1.2-0.4-2.6-0.7-4.1-0.7
	c-5.8,0-11,3.2-11,9.6c0,3.1,1.7,5.7,3.6,6.9v0.2c-1.7,1.2-3,3.1-3,5c0,2.2,1.1,3.6,2.5,4.5v0.2c-2.5,1.4-3.8,3.2-3.8,5.4
	c0,4.7,5,6.8,11.2,6.8c9.1,0,14.9-4,14.9-9.6C219.4,71.4,215.8,69.4,209.2,69.4z M205.1,52.4c2.1,0,3.7,1.5,3.7,4.3
	c0,2.9-1.6,4.4-3.7,4.4c-2.1,0-3.6-1.5-3.6-4.4C201.4,53.8,203,52.4,205.1,52.4z M205.8,80.8c-3.6,0-5.9-1.1-5.9-3.1
	c0-1,0.5-1.8,1.4-2.6c0.9,0.2,1.9,0.3,3.8,0.3h2.8c2.6,0,4.1,0.4,4.1,2.1C211.9,79.3,209.3,80.8,205.8,80.8z"/>
</svg>
